# xmcd CD database file
#
# Track frame offsets:
#	150
#	18080
#	26340
#	37690
#	69210
#	83220
#	95415
#	104380
#	121165
#	133320
#	148295
#	159385
#	167370
#	180115
#	194115
#	206075
#	216315
#	227175
#	242030
#	256770
#	265065
#	278760
#	295975
#	306050
#	327305
#
# Disc length: 4596 seconds
#
# Revision: 1
# Processed by: cddbd v1.5.2PL0 Copyright (c) Steve Scherf et al.
# Submitted via: CDex 1.51
#
DISCID=5c11f219
DTITLE=Johnny Cash and Bob Dylan - Land Of The Free, Home Of The Brave
DYEAR=1969
DGENRE=Country
TTITLE0=One Too Many Mornings
TTITLE1=Mountain Dew
TTITLE2=I Still Miss Someone
TTITLE3=Careless Love
TTITLE4=Matchbox
TTITLE5=That's All Right Mama
TTITLE6=Big River
TTITLE7=Girl From The North Country
TTITLE8=I Walk The Line
TTITLE9=You Are My Sunshine
TTITLE10=Ring Of Fire
TTITLE11=Guess Things Happen That Way
TTITLE12=Just A Closer Walk With Thee
TTITLE13=T For Texas
TTITLE14=T For Texas (Version 2)
TTITLE15=I Threw It All Away (Live On TV)
TTITLE16=Living The Blues (Live On TV)
TTITLE17=Girl From The North Country (Live On TV)
TTITLE18=Thousand Miles Behind
TTITLE19=Wo Ist Zuhause, Mama?
TTITLE20=Wichita Lineman
TTITLE21=Cowboy's Prayer
TTITLE22=That Lucky Old Sun
TTITLE23=The Wanderer (with U2)
TTITLE24=Indians
EXTD=YEAR: 1969
EXTT0=
EXTT1=
EXTT2=
EXTT3=
EXTT4=
EXTT5=
EXTT6=
EXTT7=
EXTT8=
EXTT9=
EXTT10=
EXTT11=
EXTT12=
EXTT13=
EXTT14=
EXTT15=
EXTT16=
EXTT17=
EXTT18=
EXTT19=
EXTT20=
EXTT21=
EXTT22=
EXTT23=
EXTT24=
PLAYORDER=
